<mxfile host="app.diagrams.net" modified="2023-06-13T19:49:10.484Z" agent="Mozilla/5.0 (Windows NT 10.0; Win64; x64) AppleWebKit/537.36 (KHTML, like Gecko) Chrome/109.0.0.0 Safari/537.36 Edg/109.0.1518.49" etag="j_85OmhP4dxD4AzZ69ni" version="21.3.7" type="device" pages="2">
  <diagram id="YY6nUF2seuYiEukA69Tj" name="Page-1">
    <mxGraphModel dx="2641" dy="3079" grid="1" gridSize="10" guides="1" tooltips="1" connect="1" arrows="1" fold="1" page="1" pageScale="1" pageWidth="827" pageHeight="1169" math="0" shadow="0">
      <root>
        <mxCell id="0" />
        <mxCell id="1" parent="0" />
        <mxCell id="Tsw-Buwmbg-in61S9K9N-1" value="Récepteur" style="rounded=0;whiteSpace=wrap;html=1;shadow=0;strokeColor=#000000;fontFamily=Bahnshrift;fontSize=24;fillColor=#E6E6E6;opacity=80;align=center;verticalAlign=top;spacingLeft=10;spacingTop=1;strokeWidth=2;" parent="1" vertex="1">
          <mxGeometry x="1005" y="-430" width="480" height="170" as="geometry" />
        </mxCell>
        <mxCell id="B5Gm20DDVaIgzmbli9M--1" value="Émetteur" style="rounded=0;whiteSpace=wrap;html=1;shadow=0;strokeColor=#000000;fontFamily=Bahnshrift;fontSize=24;fillColor=#E6E6E6;opacity=80;align=center;verticalAlign=top;spacingLeft=10;spacingTop=1;strokeWidth=2;" parent="1" vertex="1">
          <mxGeometry x="870" y="-780" width="775" height="310" as="geometry" />
        </mxCell>
        <mxCell id="F75bDuLQ9bjmyO2A-d3Q-23" value="Raspberry PI 1" style="rounded=1;whiteSpace=wrap;html=1;verticalAlign=middle;fillColor=#FFCCCC;opacity=80;textOpacity=80;" parent="1" vertex="1">
          <mxGeometry x="1185" y="-375" width="120" height="100" as="geometry" />
        </mxCell>
        <mxCell id="F75bDuLQ9bjmyO2A-d3Q-31" value="" style="edgeStyle=orthogonalEdgeStyle;rounded=0;orthogonalLoop=1;jettySize=auto;html=1;startArrow=none;startFill=0;entryX=0;entryY=0.25;entryDx=0;entryDy=0;textOpacity=80;" parent="1" source="F75bDuLQ9bjmyO2A-d3Q-24" target="F75bDuLQ9bjmyO2A-d3Q-23" edge="1">
          <mxGeometry relative="1" as="geometry" />
        </mxCell>
        <mxCell id="F75bDuLQ9bjmyO2A-d3Q-24" value="&lt;div&gt;Alimentation&lt;/div&gt;&lt;div&gt;secteur&lt;br&gt;&lt;/div&gt;" style="rounded=1;whiteSpace=wrap;html=1;textOpacity=80;" parent="1" vertex="1">
          <mxGeometry x="1025" y="-370" width="120" height="40" as="geometry" />
        </mxCell>
        <mxCell id="F75bDuLQ9bjmyO2A-d3Q-32" value="" style="edgeStyle=orthogonalEdgeStyle;rounded=0;orthogonalLoop=1;jettySize=auto;html=1;startArrow=classic;startFill=1;textOpacity=80;" parent="1" source="F75bDuLQ9bjmyO2A-d3Q-29" target="F75bDuLQ9bjmyO2A-d3Q-23" edge="1">
          <mxGeometry relative="1" as="geometry" />
        </mxCell>
        <mxCell id="F75bDuLQ9bjmyO2A-d3Q-29" value="&lt;div&gt;Module&lt;/div&gt;&lt;div&gt;Digi Xbee RR&lt;br&gt;&lt;/div&gt;" style="rounded=1;whiteSpace=wrap;html=1;fillColor=#99FF99;opacity=80;textOpacity=80;" parent="1" vertex="1">
          <mxGeometry x="1345" y="-355" width="120" height="60" as="geometry" />
        </mxCell>
        <mxCell id="F75bDuLQ9bjmyO2A-d3Q-34" value="" style="edgeStyle=orthogonalEdgeStyle;rounded=0;orthogonalLoop=1;jettySize=auto;html=1;startArrow=classic;startFill=1;entryX=0;entryY=0.75;entryDx=0;entryDy=0;textOpacity=80;" parent="1" source="F75bDuLQ9bjmyO2A-d3Q-33" target="F75bDuLQ9bjmyO2A-d3Q-23" edge="1">
          <mxGeometry relative="1" as="geometry" />
        </mxCell>
        <mxCell id="F75bDuLQ9bjmyO2A-d3Q-33" value="Connexion&lt;br&gt;Ethernet" style="rounded=1;whiteSpace=wrap;html=1;textOpacity=80;" parent="1" vertex="1">
          <mxGeometry x="1025" y="-320" width="120" height="40" as="geometry" />
        </mxCell>
        <mxCell id="M0yTOQBAQK-R7fatcSlH-1" style="edgeStyle=orthogonalEdgeStyle;rounded=0;orthogonalLoop=1;jettySize=auto;html=1;exitX=1;exitY=0.5;exitDx=0;exitDy=0;entryX=0;entryY=0.25;entryDx=0;entryDy=0;fontFamily=Bahnshrift;fontSize=14;startArrow=none;startFill=0;textOpacity=80;" parent="1" source="M0yTOQBAQK-R7fatcSlH-2" target="M0yTOQBAQK-R7fatcSlH-7" edge="1">
          <mxGeometry relative="1" as="geometry" />
        </mxCell>
        <mxCell id="M0yTOQBAQK-R7fatcSlH-2" value="Alimentation" style="rounded=1;whiteSpace=wrap;html=1;fontFamily=Bahnshrift;shadow=1;textOpacity=80;" parent="1" vertex="1">
          <mxGeometry x="885" y="-690" width="120" height="40" as="geometry" />
        </mxCell>
        <mxCell id="M0yTOQBAQK-R7fatcSlH-3" value="LED RGB" style="rounded=1;whiteSpace=wrap;html=1;fontFamily=Bahnshrift;shadow=1;textOpacity=80;" parent="1" vertex="1">
          <mxGeometry x="1355" y="-730" width="120" height="40" as="geometry" />
        </mxCell>
        <mxCell id="M0yTOQBAQK-R7fatcSlH-4" style="edgeStyle=orthogonalEdgeStyle;rounded=0;orthogonalLoop=1;jettySize=auto;html=1;exitX=1;exitY=0.5;exitDx=0;exitDy=0;entryX=0;entryY=0.5;entryDx=0;entryDy=0;fontFamily=Bahnshrift;fontSize=14;startArrow=none;startFill=0;textOpacity=80;" parent="1" source="M0yTOQBAQK-R7fatcSlH-5" target="M0yTOQBAQK-R7fatcSlH-7" edge="1">
          <mxGeometry relative="1" as="geometry" />
        </mxCell>
        <mxCell id="M0yTOQBAQK-R7fatcSlH-5" value="Bouton&lt;br&gt;poussoir" style="rounded=1;whiteSpace=wrap;html=1;fontFamily=Bahnshrift;shadow=1;textOpacity=80;" parent="1" vertex="1">
          <mxGeometry x="885" y="-630" width="120" height="40" as="geometry" />
        </mxCell>
        <mxCell id="vqk1w7F_Uc81UaHKGugi-11" style="edgeStyle=orthogonalEdgeStyle;rounded=0;orthogonalLoop=1;jettySize=auto;html=1;exitX=1;exitY=0.75;exitDx=0;exitDy=0;fontFamily=Bahnshrift;fontSize=14;startArrow=none;startFill=0;textOpacity=80;" parent="1" source="M0yTOQBAQK-R7fatcSlH-7" edge="1">
          <mxGeometry relative="1" as="geometry">
            <mxPoint x="1355" y="-550" as="targetPoint" />
            <Array as="points">
              <mxPoint x="1355" y="-550" />
            </Array>
          </mxGeometry>
        </mxCell>
        <mxCell id="M0yTOQBAQK-R7fatcSlH-7" value="PIC32MM00**GPL020" style="swimlane;whiteSpace=wrap;html=1;rounded=0;fontFamily=Bahnshrift;fillColor=#ee2223;strokeColor=#000000;swimlaneFillColor=#EE2223;startSize=30;opacity=80;textOpacity=80;" parent="1" vertex="1">
          <mxGeometry x="1045" y="-730" width="270" height="240" as="geometry" />
        </mxCell>
        <mxCell id="M0yTOQBAQK-R7fatcSlH-8" value="V&lt;sub&gt;IN&lt;/sub&gt; = 2,0V ... 3,6V " style="rounded=1;whiteSpace=wrap;html=1;fontFamily=Bahnshrift;shadow=1;textOpacity=80;" parent="M0yTOQBAQK-R7fatcSlH-7" vertex="1">
          <mxGeometry x="10" y="40" width="120" height="40" as="geometry" />
        </mxCell>
        <mxCell id="M0yTOQBAQK-R7fatcSlH-9" value="0,5&lt;span&gt;&lt;span class=&quot;LrzXr kno-fv wHYlTd z8gr9e&quot;&gt;µA sleep + RTC&lt;br&gt;&lt;/span&gt;&lt;/span&gt;" style="rounded=1;whiteSpace=wrap;html=1;fontFamily=Bahnshrift;shadow=1;textOpacity=80;" parent="M0yTOQBAQK-R7fatcSlH-7" vertex="1">
          <mxGeometry x="140" y="40" width="120" height="40" as="geometry" />
        </mxCell>
        <mxCell id="M0yTOQBAQK-R7fatcSlH-10" value="&lt;div&gt;CPU&lt;/div&gt;&lt;div&gt;32-Bit RISC&lt;br&gt;&lt;/div&gt;" style="rounded=1;whiteSpace=wrap;html=1;fontFamily=Bahnshrift;shadow=1;textOpacity=80;" parent="M0yTOQBAQK-R7fatcSlH-7" vertex="1">
          <mxGeometry x="10" y="90" width="120" height="40" as="geometry" />
        </mxCell>
        <mxCell id="M0yTOQBAQK-R7fatcSlH-11" value="SSOP/QFN package" style="rounded=1;whiteSpace=wrap;html=1;fontFamily=Bahnshrift;shadow=1;textOpacity=80;" parent="M0yTOQBAQK-R7fatcSlH-7" vertex="1">
          <mxGeometry x="10" y="140" width="120" height="40" as="geometry" />
        </mxCell>
        <mxCell id="M0yTOQBAQK-R7fatcSlH-12" value="2x SPI" style="rounded=1;whiteSpace=wrap;html=1;fontFamily=Bahnshrift;shadow=1;textOpacity=80;" parent="M0yTOQBAQK-R7fatcSlH-7" vertex="1">
          <mxGeometry x="140" y="90" width="120" height="20" as="geometry" />
        </mxCell>
        <mxCell id="M0yTOQBAQK-R7fatcSlH-13" value="2x UART" style="rounded=1;whiteSpace=wrap;html=1;fontFamily=Bahnshrift;shadow=1;textOpacity=80;" parent="M0yTOQBAQK-R7fatcSlH-7" vertex="1">
          <mxGeometry x="140" y="120" width="120" height="20" as="geometry" />
        </mxCell>
        <mxCell id="M0yTOQBAQK-R7fatcSlH-17" value="16 GPIO" style="rounded=1;whiteSpace=wrap;html=1;fontFamily=Bahnshrift;shadow=1;textOpacity=80;" parent="M0yTOQBAQK-R7fatcSlH-7" vertex="1">
          <mxGeometry x="10" y="190" width="120" height="40" as="geometry" />
        </mxCell>
        <mxCell id="M0yTOQBAQK-R7fatcSlH-18" style="edgeStyle=orthogonalEdgeStyle;rounded=0;orthogonalLoop=1;jettySize=auto;html=1;exitX=1;exitY=0.5;exitDx=0;exitDy=0;entryX=0;entryY=0.75;entryDx=0;entryDy=0;fontFamily=Bahnshrift;fontSize=14;startArrow=none;startFill=0;textOpacity=80;" parent="1" source="M0yTOQBAQK-R7fatcSlH-19" target="M0yTOQBAQK-R7fatcSlH-7" edge="1">
          <mxGeometry relative="1" as="geometry" />
        </mxCell>
        <mxCell id="M0yTOQBAQK-R7fatcSlH-19" value="&lt;div&gt;Capteur à&lt;/div&gt;&lt;div&gt;effet Hall&lt;br&gt;&lt;/div&gt;" style="rounded=1;whiteSpace=wrap;html=1;fontFamily=Bahnshrift;shadow=1;textOpacity=80;" parent="1" vertex="1">
          <mxGeometry x="885" y="-570" width="120" height="40" as="geometry" />
        </mxCell>
        <mxCell id="M0yTOQBAQK-R7fatcSlH-21" value="(DIGI XBEE RR) (A DETERMINER)" style="swimlane;whiteSpace=wrap;html=1;rounded=0;fontFamily=Bahnshrift;fillColor=#99FF99;strokeColor=#000000;swimlaneFillColor=#99FF99;startSize=30;opacity=80;textOpacity=80;" parent="1" vertex="1">
          <mxGeometry x="1355" y="-651" width="270" height="161" as="geometry" />
        </mxCell>
        <mxCell id="M0yTOQBAQK-R7fatcSlH-22" value="V&lt;sub&gt;IN&lt;/sub&gt; = 1,7V ... 3,8V " style="rounded=1;whiteSpace=wrap;html=1;fontFamily=Bahnshrift;shadow=1;textOpacity=80;" parent="M0yTOQBAQK-R7fatcSlH-21" vertex="1">
          <mxGeometry x="10" y="40" width="120" height="30" as="geometry" />
        </mxCell>
        <mxCell id="M0yTOQBAQK-R7fatcSlH-23" value="8&lt;span&gt;&lt;span class=&quot;LrzXr kno-fv wHYlTd z8gr9e&quot;&gt;µA sleep&lt;br&gt;&lt;/span&gt;&lt;/span&gt;" style="rounded=1;whiteSpace=wrap;html=1;fontFamily=Bahnshrift;shadow=1;textOpacity=80;" parent="M0yTOQBAQK-R7fatcSlH-21" vertex="1">
          <mxGeometry x="140" y="40" width="120" height="30" as="geometry" />
        </mxCell>
        <mxCell id="M0yTOQBAQK-R7fatcSlH-26" value="SPI" style="rounded=1;whiteSpace=wrap;html=1;fontFamily=Bahnshrift;shadow=1;textOpacity=80;" parent="M0yTOQBAQK-R7fatcSlH-21" vertex="1">
          <mxGeometry x="140" y="80" width="120" height="20" as="geometry" />
        </mxCell>
        <mxCell id="M0yTOQBAQK-R7fatcSlH-27" value="UART" style="rounded=1;whiteSpace=wrap;html=1;fontFamily=Bahnshrift;shadow=1;textOpacity=80;" parent="M0yTOQBAQK-R7fatcSlH-21" vertex="1">
          <mxGeometry x="140" y="105" width="120" height="20" as="geometry" />
        </mxCell>
        <mxCell id="M0yTOQBAQK-R7fatcSlH-28" value="16 GPIO" style="rounded=1;whiteSpace=wrap;html=1;fontFamily=Bahnshrift;shadow=1;textOpacity=80;" parent="M0yTOQBAQK-R7fatcSlH-21" vertex="1">
          <mxGeometry x="10" y="80" width="120" height="30" as="geometry" />
        </mxCell>
        <mxCell id="M0yTOQBAQK-R7fatcSlH-29" value="I2C" style="rounded=1;whiteSpace=wrap;html=1;fontFamily=Bahnshrift;shadow=1;textOpacity=80;" parent="M0yTOQBAQK-R7fatcSlH-21" vertex="1">
          <mxGeometry x="140" y="130" width="120" height="20" as="geometry" />
        </mxCell>
        <mxCell id="M0yTOQBAQK-R7fatcSlH-30" value="Zigbee 3.0" style="rounded=1;whiteSpace=wrap;html=1;fontFamily=Bahnshrift;shadow=1;textOpacity=80;" parent="M0yTOQBAQK-R7fatcSlH-21" vertex="1">
          <mxGeometry x="10" y="120" width="120" height="30" as="geometry" />
        </mxCell>
        <mxCell id="vqk1w7F_Uc81UaHKGugi-12" style="edgeStyle=orthogonalEdgeStyle;rounded=0;orthogonalLoop=1;jettySize=auto;html=1;fontFamily=Bahnshrift;fontSize=14;startArrow=none;startFill=0;entryX=0;entryY=0.5;entryDx=0;entryDy=0;exitX=1;exitY=0.085;exitDx=0;exitDy=0;exitPerimeter=0;textOpacity=80;" parent="1" source="M0yTOQBAQK-R7fatcSlH-7" target="M0yTOQBAQK-R7fatcSlH-3" edge="1">
          <mxGeometry relative="1" as="geometry">
            <mxPoint x="1325" y="-710" as="sourcePoint" />
            <mxPoint x="1365" y="-540" as="targetPoint" />
            <Array as="points">
              <mxPoint x="1335" y="-710" />
            </Array>
          </mxGeometry>
        </mxCell>
      </root>
    </mxGraphModel>
  </diagram>
  <diagram id="9nehZ_RuDmPpHqE2BlHT" name="Page-2">
    <mxGraphModel dx="1673" dy="885" grid="1" gridSize="10" guides="1" tooltips="1" connect="1" arrows="1" fold="1" page="1" pageScale="1" pageWidth="827" pageHeight="1169" math="0" shadow="0">
      <root>
        <mxCell id="0" />
        <mxCell id="1" parent="0" />
        <mxCell id="zz7a3qYkSLAzLYwzIXcs-1" value="Récepteur" style="rounded=0;whiteSpace=wrap;html=1;shadow=0;strokeColor=#000000;fontFamily=Bahnshrift;fontSize=24;fillColor=#E6E6E6;opacity=80;align=center;verticalAlign=top;spacingLeft=10;spacingTop=1;strokeWidth=2;" vertex="1" parent="1">
          <mxGeometry x="100" y="485" width="480" height="165" as="geometry" />
        </mxCell>
        <mxCell id="7-t8BfOSobQBC2oOqXGy-2" value="Émetteur" style="rounded=0;whiteSpace=wrap;html=1;shadow=0;strokeColor=#000000;fontFamily=Bahnshrift;fontSize=24;fillColor=#E6E6E6;opacity=80;align=center;verticalAlign=top;spacingLeft=10;spacingTop=1;strokeWidth=2;" vertex="1" parent="1">
          <mxGeometry x="40" y="130" width="630" height="310" as="geometry" />
        </mxCell>
        <mxCell id="Ir4kONIFC3eWmCo2rjDp-12" style="edgeStyle=orthogonalEdgeStyle;rounded=0;orthogonalLoop=1;jettySize=auto;html=1;exitX=1;exitY=0.5;exitDx=0;exitDy=0;entryX=0;entryY=0.25;entryDx=0;entryDy=0;fontFamily=Bahnshrift;fontSize=14;startArrow=none;startFill=0;textOpacity=80;" edge="1" parent="1" source="1UcSVx447nNHeJThNmoI-2" target="x1aHXwTWV_I5LHz_uCNe-1">
          <mxGeometry relative="1" as="geometry" />
        </mxCell>
        <mxCell id="1UcSVx447nNHeJThNmoI-2" value="Alimentation" style="rounded=1;whiteSpace=wrap;html=1;fontFamily=Bahnshrift;shadow=1;textOpacity=80;" vertex="1" parent="1">
          <mxGeometry x="60" y="220" width="120" height="40" as="geometry" />
        </mxCell>
        <mxCell id="1UcSVx447nNHeJThNmoI-9" value="LED RGB" style="rounded=1;whiteSpace=wrap;html=1;fontFamily=Bahnshrift;shadow=1;textOpacity=80;" vertex="1" parent="1">
          <mxGeometry x="530" y="220" width="120" height="40" as="geometry" />
        </mxCell>
        <mxCell id="LetEKvpWcmtcypj9ycB9-1" value="" style="edgeStyle=orthogonalEdgeStyle;rounded=0;orthogonalLoop=1;jettySize=auto;html=1;fontFamily=Bahnshrift;fontSize=24;startArrow=none;startFill=0;" edge="1" parent="1" source="1UcSVx447nNHeJThNmoI-14" target="1UcSVx447nNHeJThNmoI-21">
          <mxGeometry relative="1" as="geometry" />
        </mxCell>
        <mxCell id="1UcSVx447nNHeJThNmoI-14" value="&lt;div&gt;Alimentation&lt;/div&gt;&lt;div&gt;secteur&lt;br&gt;&lt;/div&gt;" style="rounded=1;whiteSpace=wrap;html=1;fontFamily=Bahnshrift;textOpacity=80;" vertex="1" parent="1">
          <mxGeometry x="120" y="530" width="120" height="40" as="geometry" />
        </mxCell>
        <mxCell id="MnmUvwSzP2rwYpi7NJG9-4" style="edgeStyle=orthogonalEdgeStyle;rounded=0;orthogonalLoop=1;jettySize=auto;html=1;exitX=1;exitY=0.5;exitDx=0;exitDy=0;entryX=0;entryY=0.75;entryDx=0;entryDy=0;fontFamily=Bahnshrift;fontSize=14;startArrow=none;startFill=0;textOpacity=80;" edge="1" parent="1" source="1UcSVx447nNHeJThNmoI-21" target="1UcSVx447nNHeJThNmoI-22">
          <mxGeometry relative="1" as="geometry" />
        </mxCell>
        <mxCell id="1UcSVx447nNHeJThNmoI-21" value="Régulateur" style="rounded=1;whiteSpace=wrap;html=1;fontFamily=Bahnshrift;textOpacity=80;" vertex="1" parent="1">
          <mxGeometry x="120" y="590" width="120" height="40" as="geometry" />
        </mxCell>
        <mxCell id="MnmUvwSzP2rwYpi7NJG9-5" style="edgeStyle=orthogonalEdgeStyle;rounded=0;orthogonalLoop=1;jettySize=auto;html=1;exitX=1;exitY=0.25;exitDx=0;exitDy=0;entryX=0;entryY=0.5;entryDx=0;entryDy=0;fontFamily=Bahnshrift;fontSize=14;startArrow=none;startFill=0;textOpacity=80;" edge="1" parent="1" source="1UcSVx447nNHeJThNmoI-22" target="1UcSVx447nNHeJThNmoI-23">
          <mxGeometry relative="1" as="geometry" />
        </mxCell>
        <mxCell id="MnmUvwSzP2rwYpi7NJG9-6" style="edgeStyle=orthogonalEdgeStyle;rounded=0;orthogonalLoop=1;jettySize=auto;html=1;exitX=1;exitY=0.75;exitDx=0;exitDy=0;entryX=0;entryY=0.5;entryDx=0;entryDy=0;fontFamily=Bahnshrift;fontSize=14;startArrow=none;startFill=0;textOpacity=80;" edge="1" parent="1" source="1UcSVx447nNHeJThNmoI-22" target="MnmUvwSzP2rwYpi7NJG9-2">
          <mxGeometry relative="1" as="geometry" />
        </mxCell>
        <mxCell id="1UcSVx447nNHeJThNmoI-22" value="PIC32MX" style="rounded=1;whiteSpace=wrap;html=1;fontFamily=Bahnshrift;textOpacity=80;" vertex="1" parent="1">
          <mxGeometry x="280" y="535" width="120" height="100" as="geometry" />
        </mxCell>
        <mxCell id="1UcSVx447nNHeJThNmoI-23" value="ESP32" style="rounded=1;whiteSpace=wrap;html=1;fontFamily=Bahnshrift;textOpacity=80;" vertex="1" parent="1">
          <mxGeometry x="440" y="540" width="120" height="40" as="geometry" />
        </mxCell>
        <mxCell id="twckUua5gWTcXWhnED8R-3" style="edgeStyle=orthogonalEdgeStyle;rounded=0;orthogonalLoop=1;jettySize=auto;html=1;exitX=1;exitY=0.5;exitDx=0;exitDy=0;entryX=0;entryY=0.5;entryDx=0;entryDy=0;fontFamily=Bahnshrift;fontSize=14;startArrow=none;startFill=0;textOpacity=80;" edge="1" parent="1" source="qDONBm0C_AR7UJX0ZdYB-1" target="x1aHXwTWV_I5LHz_uCNe-1">
          <mxGeometry relative="1" as="geometry" />
        </mxCell>
        <mxCell id="qDONBm0C_AR7UJX0ZdYB-1" value="Bouton&lt;br&gt;poussoir" style="rounded=1;whiteSpace=wrap;html=1;fontFamily=Bahnshrift;shadow=1;textOpacity=80;" vertex="1" parent="1">
          <mxGeometry x="60" y="280" width="120" height="40" as="geometry" />
        </mxCell>
        <mxCell id="x1aHXwTWV_I5LHz_uCNe-3" style="edgeStyle=orthogonalEdgeStyle;rounded=0;orthogonalLoop=1;jettySize=auto;html=1;exitX=1;exitY=0.25;exitDx=0;exitDy=0;entryX=0;entryY=0.5;entryDx=0;entryDy=0;startArrow=none;startFill=0;fontFamily=Bahnshrift;textOpacity=80;" edge="1" parent="1" source="x1aHXwTWV_I5LHz_uCNe-1" target="1UcSVx447nNHeJThNmoI-9">
          <mxGeometry relative="1" as="geometry" />
        </mxCell>
        <mxCell id="x1aHXwTWV_I5LHz_uCNe-1" value="&lt;font style=&quot;font-size: 14px;&quot;&gt;NRF52820&lt;/font&gt;" style="swimlane;whiteSpace=wrap;html=1;rounded=0;fontFamily=Bahnshrift;fillColor=#00aeda;strokeColor=#000000;swimlaneFillColor=#00aeda;startSize=30;opacity=80;textOpacity=80;" vertex="1" parent="1">
          <mxGeometry x="220" y="180" width="270" height="240" as="geometry" />
        </mxCell>
        <mxCell id="Ir4kONIFC3eWmCo2rjDp-1" value="V&lt;sub&gt;IN&lt;/sub&gt; = 1,7V ... 5,5V " style="rounded=1;whiteSpace=wrap;html=1;fontFamily=Bahnshrift;shadow=1;textOpacity=80;" vertex="1" parent="x1aHXwTWV_I5LHz_uCNe-1">
          <mxGeometry x="10" y="40" width="120" height="40" as="geometry" />
        </mxCell>
        <mxCell id="Ir4kONIFC3eWmCo2rjDp-2" value="1,2&lt;span&gt;&lt;span class=&quot;LrzXr kno-fv wHYlTd z8gr9e&quot;&gt;µA sleep + RTC&lt;br&gt;&lt;/span&gt;&lt;/span&gt;" style="rounded=1;whiteSpace=wrap;html=1;fontFamily=Bahnshrift;shadow=1;textOpacity=80;" vertex="1" parent="x1aHXwTWV_I5LHz_uCNe-1">
          <mxGeometry x="140" y="40" width="120" height="40" as="geometry" />
        </mxCell>
        <mxCell id="Ir4kONIFC3eWmCo2rjDp-3" value="&lt;div&gt;CPU&lt;/div&gt;&lt;div&gt;ARM Cortex-M4&lt;br&gt;&lt;/div&gt;" style="rounded=1;whiteSpace=wrap;html=1;fontFamily=Bahnshrift;shadow=1;textOpacity=80;" vertex="1" parent="x1aHXwTWV_I5LHz_uCNe-1">
          <mxGeometry x="10" y="90" width="120" height="40" as="geometry" />
        </mxCell>
        <mxCell id="Ir4kONIFC3eWmCo2rjDp-6" value="QFN40 package" style="rounded=1;whiteSpace=wrap;html=1;fontFamily=Bahnshrift;shadow=1;textOpacity=80;" vertex="1" parent="x1aHXwTWV_I5LHz_uCNe-1">
          <mxGeometry x="10" y="140" width="120" height="40" as="geometry" />
        </mxCell>
        <mxCell id="Ir4kONIFC3eWmCo2rjDp-4" value="2x SPI" style="rounded=1;whiteSpace=wrap;html=1;fontFamily=Bahnshrift;shadow=1;textOpacity=80;" vertex="1" parent="x1aHXwTWV_I5LHz_uCNe-1">
          <mxGeometry x="140" y="90" width="120" height="20" as="geometry" />
        </mxCell>
        <mxCell id="Ir4kONIFC3eWmCo2rjDp-5" value="2x I2C" style="rounded=1;whiteSpace=wrap;html=1;fontFamily=Bahnshrift;shadow=1;textOpacity=80;" vertex="1" parent="x1aHXwTWV_I5LHz_uCNe-1">
          <mxGeometry x="140" y="120" width="120" height="20" as="geometry" />
        </mxCell>
        <mxCell id="1UcSVx447nNHeJThNmoI-11" value="Bluetooth" style="rounded=1;whiteSpace=wrap;html=1;fontFamily=Bahnshrift;shadow=1;textOpacity=80;" vertex="1" parent="x1aHXwTWV_I5LHz_uCNe-1">
          <mxGeometry x="140" y="150" width="120" height="20" as="geometry" />
        </mxCell>
        <mxCell id="HhPoZWkzKQCivVPVrcuq-1" value="Zigbee" style="rounded=1;whiteSpace=wrap;html=1;fontFamily=Bahnshrift;shadow=1;textOpacity=80;" vertex="1" parent="x1aHXwTWV_I5LHz_uCNe-1">
          <mxGeometry x="140" y="180" width="120" height="20" as="geometry" />
        </mxCell>
        <mxCell id="Ir4kONIFC3eWmCo2rjDp-7" value="Thread" style="rounded=1;whiteSpace=wrap;html=1;fontFamily=Bahnshrift;shadow=1;textOpacity=80;" vertex="1" parent="x1aHXwTWV_I5LHz_uCNe-1">
          <mxGeometry x="140" y="210" width="120" height="20" as="geometry" />
        </mxCell>
        <mxCell id="HhPoZWkzKQCivVPVrcuq-3" value="18 GPIO" style="rounded=1;whiteSpace=wrap;html=1;fontFamily=Bahnshrift;shadow=1;textOpacity=80;" vertex="1" parent="x1aHXwTWV_I5LHz_uCNe-1">
          <mxGeometry x="10" y="190" width="120" height="40" as="geometry" />
        </mxCell>
        <mxCell id="twckUua5gWTcXWhnED8R-4" style="edgeStyle=orthogonalEdgeStyle;rounded=0;orthogonalLoop=1;jettySize=auto;html=1;exitX=1;exitY=0.5;exitDx=0;exitDy=0;entryX=0;entryY=0.75;entryDx=0;entryDy=0;fontFamily=Bahnshrift;fontSize=14;startArrow=none;startFill=0;textOpacity=80;" edge="1" parent="1" source="twckUua5gWTcXWhnED8R-1" target="x1aHXwTWV_I5LHz_uCNe-1">
          <mxGeometry relative="1" as="geometry" />
        </mxCell>
        <mxCell id="twckUua5gWTcXWhnED8R-1" value="&lt;div&gt;Capteur à&lt;/div&gt;&lt;div&gt;effet Hall&lt;br&gt;&lt;/div&gt;" style="rounded=1;whiteSpace=wrap;html=1;fontFamily=Bahnshrift;shadow=1;textOpacity=80;" vertex="1" parent="1">
          <mxGeometry x="60" y="340" width="120" height="40" as="geometry" />
        </mxCell>
        <mxCell id="MnmUvwSzP2rwYpi7NJG9-2" value="Module&lt;br&gt;NRF52840" style="rounded=1;whiteSpace=wrap;html=1;fontFamily=Bahnshrift;fillColor=#00AEDA;fontStyle=1;textOpacity=80;" vertex="1" parent="1">
          <mxGeometry x="440" y="590" width="120" height="40" as="geometry" />
        </mxCell>
      </root>
    </mxGraphModel>
  </diagram>
</mxfile>
